<svg width="116" height="20" viewBox="0 0 116 20" fill="none" xmlns="http://www.w3.org/2000/svg">
<g clip-path="url(#clip0_3005_100)">
<path d="M0 0.258209V1.66797L12.9648 1.5492V0.258209H0Z" fill="url(#paint0_linear_3005_100)"/>
<path d="M0 9.2951V10.7049L12.9648 10.5861V9.2951H0Z" fill="url(#paint1_linear_3005_100)"/>
<path d="M0 18.5902V20L12.9648 19.8812V18.5902H0Z" fill="url(#paint2_linear_3005_100)"/>
<path d="M42.2652 0V1.40976L55.23 1.29099V0H42.2652Z" fill="url(#paint3_linear_3005_100)"/>
<path d="M42.2652 9.03693V10.4467L55.23 10.3279V9.03693H42.2652Z" fill="url(#paint4_linear_3005_100)"/>
<path d="M42.2652 18.332V19.7418L55.23 19.623V18.332H42.2652Z" fill="url(#paint5_linear_3005_100)"/>
<path d="M17.4921 0.258209H19.1464L26.8371 17.9448L35.0672 0.258209H36.5918L27.7187 20H26.3626L17.4921 0.258209Z" fill="url(#paint6_linear_3005_100)"/>
<path d="M64.0979 20H62.7081V0.258209H64.0979L77.3998 17.6866V0.258209H78.6626V20H77.405L64.1757 3.22748L64.0979 20Z" fill="url(#paint7_linear_3005_100)"/>
<path d="M84.2893 0.258209H99.9819V1.58018H92.8642V20H91.4407V1.4201H84.2893V0.258209Z" fill="url(#paint8_linear_3005_100)"/>
<path d="M109.866 4.26025H108.515V15.9514H109.866V4.26025Z" fill="url(#paint9_linear_3005_100)"/>
<path d="M115.063 9.43198H103.322V10.7772H115.063V9.43198Z" fill="url(#paint10_linear_3005_100)"/>
</g>
<defs>
<linearGradient id="paint0_linear_3005_100" x1="0" y1="0.963089" x2="12.9648" y2="0.963089" gradientUnits="userSpaceOnUse">
<stop stop-color="#B51D44"/>
<stop offset="0.99" stop-color="#821B47"/>
</linearGradient>
<linearGradient id="paint1_linear_3005_100" x1="0" y1="9.99998" x2="0.259296" y2="9.99998" gradientUnits="userSpaceOnUse">
<stop stop-color="#B51D44"/>
<stop offset="0.99" stop-color="#821B47"/>
</linearGradient>
<linearGradient id="paint2_linear_3005_100" x1="0" y1="19.2951" x2="0.259296" y2="19.2951" gradientUnits="userSpaceOnUse">
<stop stop-color="#B51D44"/>
<stop offset="0.99" stop-color="#821B47"/>
</linearGradient>
<linearGradient id="paint3_linear_3005_100" x1="42.2652" y1="0.70488" x2="55.23" y2="0.70488" gradientUnits="userSpaceOnUse">
<stop stop-color="#B51D44"/>
<stop offset="0.99" stop-color="#821B47"/>
</linearGradient>
<linearGradient id="paint4_linear_3005_100" x1="42.2652" y1="9.74181" x2="55.23" y2="9.74181" gradientUnits="userSpaceOnUse">
<stop stop-color="#B51D44"/>
<stop offset="0.99" stop-color="#821B47"/>
</linearGradient>
<linearGradient id="paint5_linear_3005_100" x1="42.2652" y1="19.0369" x2="55.23" y2="19.0369" gradientUnits="userSpaceOnUse">
<stop stop-color="#B51D44"/>
<stop offset="0.99" stop-color="#821B47"/>
</linearGradient>
<linearGradient id="paint6_linear_3005_100" x1="17.4921" y1="10.1291" x2="36.5918" y2="10.1291" gradientUnits="userSpaceOnUse">
<stop stop-color="#B51D44"/>
<stop offset="0.99" stop-color="#821B47"/>
</linearGradient>
<linearGradient id="paint7_linear_3005_100" x1="62.7081" y1="10.1291" x2="78.6626" y2="10.1291" gradientUnits="userSpaceOnUse">
<stop stop-color="#B51D44"/>
<stop offset="0.99" stop-color="#821B47"/>
</linearGradient>
<linearGradient id="paint8_linear_3005_100" x1="84.2893" y1="10.1291" x2="99.9819" y2="10.1291" gradientUnits="userSpaceOnUse">
<stop stop-color="#B51D44"/>
<stop offset="0.99" stop-color="#821B47"/>
</linearGradient>
<linearGradient id="paint9_linear_3005_100" x1="108.515" y1="10.1059" x2="109.866" y2="10.1059" gradientUnits="userSpaceOnUse">
<stop stop-color="#B51D44"/>
<stop offset="0.99" stop-color="#821B47"/>
</linearGradient>
<linearGradient id="paint10_linear_3005_100" x1="103.322" y1="10.1059" x2="115.06" y2="10.1059" gradientUnits="userSpaceOnUse">
<stop stop-color="#B51D44"/>
<stop offset="0.99" stop-color="#821B47"/>
</linearGradient>
<clipPath id="clip0_3005_100">
<rect width="115.06" height="20" fill="white"/>
</clipPath>
</defs>
</svg>
